<svg width="80" height="80" viewBox="0 0 80 80" fill="none" xmlns="http://www.w3.org/2000/svg">
<path fill-rule="evenodd" clip-rule="evenodd" d="M20.0352 14.9918C19.1084 15.7316 18.2192 16.5259 17.3726 17.3726C13.2962 21.4489 10.4333 26.5118 9.01604 32H12C15.1826 32 18.2348 33.2643 20.4853 35.5147C22.7357 37.7652 24 40.8174 24 44V48C24 49.0609 24.4214 50.0783 25.1716 50.8284C25.9217 51.5786 26.9391 52 28 52C31.1826 52 34.2348 53.2643 36.4853 55.5147C38.7357 57.7652 40 60.8174 40 64V72C42.7048 72 45.3926 71.6571 48 70.9839V64C48 60.8174 49.2643 57.7652 51.5147 55.5147C53.7652 53.2643 56.8174 52 60 52H69.6648C71.2068 48.188 72 44.1137 72 40C72 35.8468 71.1926 31.7769 69.6648 28H68C66.9391 28 65.9217 28.4214 65.1716 29.1716C64.4214 29.9217 64 30.9391 64 32C64 35.1826 62.7357 38.2348 60.4853 40.4853C58.2348 42.7357 55.1826 44 52 44C48.8174 44 45.7652 42.7357 43.5147 40.4853C41.2643 38.2348 40 35.1826 40 32C40 30.9391 39.5786 29.9217 38.8284 29.1716C38.0783 28.4214 37.0609 28 36 28H34C30.287 28 26.726 26.525 24.1005 23.8995C21.7098 21.5087 20.273 18.3423 20.0352 14.9918ZM21.9553 4.30137C18.205 6.19696 14.7427 8.68871 11.7157 11.7157C5.31018 18.1213 1.3015 26.4756 0.266945 35.3853C0.250143 35.4942 0.237736 35.6046 0.22991 35.7162C0.0774062 37.1325 0 38.5622 0 40C0 45.2529 1.03463 50.4543 3.04482 55.3073C5.05501 60.1604 8.00139 64.5699 11.7157 68.2843C15.4301 71.9986 19.8396 74.945 24.6927 76.9552C28.117 78.3736 31.7147 79.3063 35.3816 79.7325C35.4929 79.7498 35.6056 79.7624 35.7197 79.7703C37.1386 79.923 38.5674 80 40 80C44.4403 80 48.8439 79.2607 53.0313 77.8178C53.2369 77.7631 53.4359 77.6924 53.627 77.6072C54.1914 77.4027 54.7517 77.1854 55.3073 76.9552C60.1604 74.945 64.5699 71.9986 68.2843 68.2843C71.3002 65.2683 73.8098 61.7941 75.7231 57.9962C75.8064 57.8518 75.881 57.7017 75.946 57.5466C76.3048 56.8116 76.6414 56.0649 76.9552 55.3073C78.9654 50.4543 80 45.2529 80 40C80 33.8609 78.5887 27.8674 75.9459 22.453C75.8809 22.2983 75.8065 22.1484 75.7233 22.0043C73.8247 18.2351 71.3245 14.7559 68.2843 11.7157C60.7828 4.21427 50.6087 0 40 0C33.8809 0 27.9063 1.40211 22.5058 4.02842C22.3145 4.10549 22.1306 4.19692 21.9553 4.30137ZM28 10.3352V14C28 15.5913 28.6321 17.1174 29.7574 18.2426C30.8826 19.3679 32.4087 20 34 20H36C39.1826 20 42.2348 21.2643 44.4853 23.5147C46.7357 25.7652 48 28.8174 48 32C48 33.0609 48.4214 34.0783 49.1716 34.8284C49.9217 35.5786 50.9391 36 52 36C53.0609 36 54.0783 35.5786 54.8284 34.8284C55.5786 34.0783 56 33.0609 56 32C56 28.8174 57.2643 25.7652 59.5147 23.5147C61.1014 21.928 63.0867 20.8316 65.2352 20.3228C64.4315 19.2921 63.5613 18.3065 62.6274 17.3726C56.6263 11.3714 48.4869 8 40 8C35.8468 8 31.7769 8.80737 28 10.3352ZM64.98 60H60C58.9391 60 57.9217 60.4214 57.1716 61.1716C56.4214 61.9217 56 62.9391 56 64V67.7128C58.4167 66.3175 60.6457 64.6091 62.6274 62.6274C63.4609 61.7939 64.2461 60.9166 64.98 60ZM32 70.9839V64C32 62.9391 31.5786 61.9217 30.8284 61.1716C30.0783 60.4214 29.0609 60 28 60C24.8174 60 21.7652 58.7357 19.5147 56.4853C17.2643 54.2348 16 51.1826 16 48V44C16 42.9391 15.5786 41.9217 14.8284 41.1716C14.0783 40.4214 13.0609 40 12 40H8C8 44.2023 8.8277 48.3635 10.4359 52.2459C12.044 56.1283 14.4011 59.6559 17.3726 62.6274C20.3441 65.5989 23.8717 67.956 27.7541 69.5641C29.1376 70.1372 30.5565 70.6112 32 70.9839Z" fill="url(#paint0_linear_1_7)"/>
<defs>
<linearGradient id="paint0_linear_1_7" x1="16" y1="8" x2="72" y2="64" gradientUnits="userSpaceOnUse">
<stop stop-color="#5F2BD3"/>
<stop offset="1" stop-color="#AF9DD6"/>
</linearGradient>
</defs>
</svg>
